# xmcd
#
# Track frame offsets:
# 150
# 19714
# 33549
# 51451
# 69538
# 83720
# 103219
# 115934
# 128486
# 140338
# 153840
# 168854
#
# Disc length: 2442 seconds
#
#
# Revision: 2
# Processed by: cddbd v1.5.1PL0 Copyright (c) Steve Scherf et al.
# Submitted via: FreeRIP 2.90 
#
DISCID=9909880c
DTITLE=Gary Allan - Smoke Rings In The Dark
DYEAR=1999
DGENRE=Country
TTITLE0=Smoke Rings In The Dark
TTITLE1=Right Where I Need To Be
TTITLE2=Don't Tell Mama
TTITLE3=Lovin' You Against My Will
TTITLE4=Sorry
TTITLE5=Cryin' For Nothin'
TTITLE6=Bourbon Borderline
TTITLE7=Runaway
TTITLE8=Learning To Live With Me
TTITLE9=Cowboy Blues
TTITLE10=I'm The One
TTITLE11=Greenfields
EXTD=YEAR: 1999  ID3G:   2
EXTT0=
EXTT1=
EXTT2=
EXTT3=
EXTT4=
EXTT5=
EXTT6=
EXTT7=
EXTT8=
EXTT9=
EXTT10=
EXTT11=
PLAYORDER=
